<?xml version="1.0" encoding="UTF-8" standalone="no"?>
<svg
   xmlns:dc="http://purl.org/dc/elements/1.1/"
   xmlns:cc="http://creativecommons.org/ns#"
   xmlns:rdf="http://www.w3.org/1999/02/22-rdf-syntax-ns#"
   xmlns:svg="http://www.w3.org/2000/svg"
   xmlns="http://www.w3.org/2000/svg"
   version="1.1"
   id="svg4440"
   viewBox="0 0 150 150"
   height="150"
   width="150">
  <defs
     id="defs4442" />
  <metadata
     id="metadata4445">
    <rdf:RDF>
      <cc:Work
         rdf:about="">
        <dc:format>image/svg+xml</dc:format>
        <dc:type
           rdf:resource="http://purl.org/dc/dcmitype/StillImage" />
        <dc:title></dc:title>
      </cc:Work>
    </rdf:RDF>
  </metadata>
  <g
     transform="translate(0,-902.36216)"
     id="layer1">
    <polygon
       points="73.222,426.778 71.371,387.044 33.458,375.021 41.941,336.172 8.453,314.718 26.774,279.409 0,250 26.774,220.591 8.453,185.282 41.941,163.829 33.458,124.97 71.371,112.956 73.222,73.222 112.956,71.381 124.97,33.468 163.829,41.952 185.282,8.463 220.581,26.784 250,0 279.409,26.784 314.718,8.463 336.172,41.962 375.03,33.468 387.044,71.381 426.778,73.232 428.619,112.966 466.532,124.98 458.049,163.839 491.536,185.282 473.216,220.591 500,250 473.216,279.409 491.536,314.718 458.049,336.172 466.532,375.03 428.619,387.055 426.778,426.778 387.044,428.619 375.02,466.543 336.161,458.049 314.707,491.547 279.409,473.226 250,500 220.581,473.226 185.282,491.547 163.818,458.049 124.959,466.543 112.945,428.619 "
       style="fill:#fc6e51;fill-opacity:1"
       id="polygon4291-6"
       transform="matrix(0.3,0,0,0.3,0,902.36216)" />
    <g
       transform="matrix(0.16323963,0,0,0.16323963,34.192736,944.83013)"
       id="g4366">
      <g
         id="cloud-speech-bubble">
        <g
           id="cloud-speech-bubble_1_">
          <path
             id="path4392"
             d="m 404.137,119.446 c -4.301,0 -8.517,0.376 -12.669,0.934 C 387.81,53.285 332.257,0 264.25,0 208.74,0 166.466,40.407 148.993,89.938 139.682,87.503 124.975,81.276 114.893,81.276 51.434,81.275 0,132.715 0,196.185 c 0,63.464 51.434,114.887 114.893,114.887 6.414,0 14.352,0 23.319,0 20.757,21.862 50.189,37.007 83.593,41.045 -4.173,4.785 -8.839,8.775 -11.992,10.947 -8.024,5.466 -10.77,15.994 -6.469,24.693 3.358,6.785 10.212,10.823 17.42,10.823 2.059,0 4.162,-0.327 6.211,-1.008 67.116,-22.536 101.184,-59.838 117.821,-86.499 27.053,0 48.688,0 59.34,0 52.935,0 95.832,-42.885 95.832,-95.81 0,-52.915 -42.896,-95.817 -95.831,-95.817 z"
             style="fill:#484c4d" />
          <path
             id="path4351"
             d="m 334.896,289.007 c -2.876,5.857 -7.326,13.538 -13.741,22.065 -16.626,22.119 -46.898,50.105 -100.391,68.061 0,0 29.649,-20.059 29.821,-45.84 -3.54,0.305 -7.133,0.456 -10.759,0.456 -27.514,0 -52.743,-8.517 -72.405,-22.676 -25.186,-18.128 -41.222,-45.524 -41.222,-76.191 0,-54.593 50.876,-98.862 113.627,-98.862 62.751,0 113.627,44.269 113.627,98.862 0,19.993 -6.843,38.572 -18.557,54.125 z"
             style="fill:#f4f8f8;fill-opacity:1" />
          <path
             d="m 239.826,220.39 c -8.013,0 -14.492,6.484 -14.492,14.491 0,8.007 6.479,14.497 14.492,14.497 8.002,0 14.491,-6.489 14.491,-14.497 0,-8.008 -6.489,-14.491 -14.491,-14.491 z"
             style="fill:#484c4d"
             id="path4353" />
          <path
             d="m 178.469,220.39 c -8.012,0 -14.491,6.484 -14.491,14.491 0,8.007 6.48,14.497 14.491,14.497 8.003,0 14.513,-6.489 14.513,-14.497 0,-8.008 -6.51,-14.491 -14.513,-14.491 z"
             style="fill:#484c4d"
             id="path4355" />
          <path
             d="m 301.171,220.39 c -8.012,0 -14.512,6.484 -14.512,14.491 0,8.007 6.5,14.497 14.512,14.497 8.003,0 14.503,-6.489 14.503,-14.497 0,-8.008 -6.5,-14.491 -14.503,-14.491 z"
             style="fill:#484c4d"
             id="path4357" />
        </g>
      </g>
      <g
         id="Layer_1-1" />
    </g>
  </g>
</svg>
