<?xml version="1.0" encoding="UTF-8" standalone="no"?>
<svg
   xmlns:dc="http://purl.org/dc/elements/1.1/"
   xmlns:cc="http://creativecommons.org/ns#"
   xmlns:rdf="http://www.w3.org/1999/02/22-rdf-syntax-ns#"
   xmlns:svg="http://www.w3.org/2000/svg"
   xmlns="http://www.w3.org/2000/svg"
   version="1.1"
   id="svg4440"
   viewBox="0 0 150 150"
   height="150"
   width="150">
  <defs
     id="defs4442" />
  <metadata
     id="metadata4445">
    <rdf:RDF>
      <cc:Work
         rdf:about="">
        <dc:format>image/svg+xml</dc:format>
        <dc:type
           rdf:resource="http://purl.org/dc/dcmitype/StillImage" />
        <dc:title></dc:title>
      </cc:Work>
    </rdf:RDF>
  </metadata>
  <g
     transform="translate(0,-902.36216)"
     id="layer1">
    <g
       transform="matrix(0.72916667,0,0,0.72916667,-210.41667,715.22305)"
       id="g4229">
      <g
         id="g4202"
         transform="matrix(0.41142857,0,0,0.41142857,288.57143,256.64792)">
        <g
           id="hand-pointer-cart-tablet">
          <g
             id="g4165">
            <polygon
               id="polygon4167"
               style="fill:#fc6e51;fill-opacity:1"
               points="8.453,185.282 41.941,163.829 33.458,124.97 71.371,112.956 73.222,73.222 112.956,71.381 124.97,33.468 163.829,41.952 185.282,8.459 220.581,26.779 250,0 279.409,26.779 314.718,8.459 336.172,41.957 375.03,33.468 387.044,71.381 426.778,73.232 428.619,112.961 466.532,124.98 458.049,163.839 491.536,185.282 473.216,220.591 500,250 473.216,279.409 491.536,314.718 458.049,336.172 466.532,375.03 428.619,387.055 426.778,426.778 387.044,428.619 375.02,466.543 336.161,458.049 314.707,491.547 279.409,473.226 250,500 220.581,473.226 185.282,491.547 163.818,458.049 124.959,466.543 112.945,428.619 73.222,426.778 71.371,387.044 33.458,375.021 41.941,336.172 8.453,314.718 26.774,279.409 0,250 26.774,220.591 " />
            <g
               id="_x31_1">
              <rect
                 id="rect4170"
                 y="162.196"
                 x="170.22701"
                 width="159.536"
                 style="fill:#f4f8f8"
                 height="137.528" />
              <path
                 id="path4172"
                 style="fill:#484b4d"
                 d="m 143.031,161.891 0,138.138 c 0,7.396 6.047,13.448 13.448,13.448 l 187.032,0 c 7.4,0 13.458,-6.053 13.458,-13.448 l 0,-138.138 c 0,-7.4 -6.058,-13.453 -13.458,-13.453 l -187.032,0 c -7.401,0 -13.448,6.052 -13.448,13.453 z m 186.732,0.305 0,137.528 -159.536,0 0,-137.528 159.536,0 z m -182.348,69.066 c 0,-1.968 1.587,-3.565 3.556,-3.565 1.979,0 3.565,1.597 3.565,3.565 0,1.968 -1.587,3.565 -3.565,3.565 -1.969,0.001 -3.556,-1.597 -3.556,-3.565 z m 197.881,-10.696 c 1.079,0 1.958,0.88 1.958,1.958 l 0,15.645 c 0,1.078 -0.879,1.958 -1.958,1.958 l -0.977,0 c -1.073,0 -1.958,-0.88 -1.958,-1.958 l 0,-15.645 c 0,-1.078 0.885,-1.958 1.958,-1.958 l 0.977,0 z" />
              <g
                 id="g4174">
                <path
                   id="path4176"
                   style="fill:#484b4d"
                   d="m 298.289,351.562 c -4.104,0 -8.22,-1.018 -11.887,-2.95 l -47.271,-22.033 c -6.328,-2.95 -9.074,-10.498 -6.129,-16.825 l 1.806,-3.887 c 1.439,-3.062 3.977,-5.381 7.141,-6.541 1.414,-0.519 2.869,-0.772 4.349,-0.772 1.856,0 3.652,0.396 5.345,1.19 l 12.172,5.676 -20.147,-55.471 c -2.38,-6.566 1.017,-13.845 7.574,-16.23 l 2.543,-0.926 c 1.393,-0.508 2.849,-0.768 4.328,-0.768 5.315,0 10.097,3.352 11.907,8.341 l 11.622,31.921 c 0.697,-0.315 1.394,-0.605 2.105,-0.864 3.749,-1.363 6.958,-1.648 8.993,-1.648 0.295,0 0.554,0.005 0.777,0.016 l 0.524,-0.26 c 0.915,-0.447 2.248,-1.053 3.835,-1.633 3.519,-1.276 6.841,-1.928 9.888,-1.928 0.03,0 0.066,0 0.097,0 l 0.875,-0.452 c 1.124,-0.585 2.278,-1.119 3.474,-1.557 3.245,-1.181 6.154,-1.566 8.093,-1.674 l 3.967,-0.417 2.594,-0.544 0.143,0.306 c 0.26,-0.011 0.509,-0.016 0.753,-0.016 4.629,0 10.772,1.704 13.728,9.832 l 12.599,34.602 c 4.751,13.061 -2.004,27.547 -15.065,32.298 l -32.145,11.698 c -2.764,1.008 -5.649,1.516 -8.588,1.516 l 0,0 z" />
                <path
                   id="path4178"
                   style="fill:#f5f7fa;fill-opacity:1"
                   d="m 336.126,273.397 12.599,34.607 c 3.677,10.102 -1.557,21.311 -11.652,24.983 l -32.15,11.709 c -5.158,1.871 -10.9,1.475 -15.864,-1.13 l -47.516,-22.155 c -3.479,-1.628 -4.984,-5.767 -3.367,-9.247 l 1.806,-3.886 c 0.789,-1.688 2.187,-2.96 3.927,-3.601 1.754,-0.631 3.642,-0.55 5.325,0.233 L 273.882,316.405 249.03,248 c -1.307,-3.611 0.56,-7.609 4.161,-8.921 l 2.543,-0.926 c 3.611,-1.317 7.614,0.549 8.926,4.16 l 13.941,38.3 2.574,-1.617 c 1.449,-0.9 2.976,-1.648 4.526,-2.213 4.634,-1.684 8.148,-1.256 8.174,-1.251 l 0.433,0.061 1.806,4.949 c 0.228,0.636 0.931,0.961 1.561,0.732 0.636,-0.234 0.956,-0.931 0.727,-1.561 l -1.846,-5.061 c 0.783,-0.382 1.917,-0.9 3.28,-1.399 3.194,-1.159 6.205,-1.693 8.718,-1.556 l 0.636,0.035 1.943,5.336 c 0.229,0.636 0.931,0.961 1.566,0.728 0.631,-0.229 0.956,-0.926 0.728,-1.561 l -2.061,-5.656 c 0.906,-0.468 1.837,-0.905 2.798,-1.257 4.537,-1.652 8.184,-1.342 8.204,-1.348 l 0.428,0.051 0.401,-0.102 c 0.168,-0.035 0.315,-0.06 0.468,-0.097 l 2.1,5.758 c 0.229,0.636 0.926,0.956 1.567,0.728 0.63,-0.228 0.956,-0.926 0.727,-1.561 l -1.947,-5.336 c 6.606,-0.696 8.833,2.742 10.014,5.982 z" />
              </g>
              <g
                 id="g4180" />
              <g
                 id="sample_text_7_">
                <rect
                   id="rect4189"
                   y="184.08701"
                   x="247.18201"
                   width="71.308998"
                   style="fill:#484b4d"
                   height="6.1799998" />
                <rect
                   id="rect4191"
                   y="200.923"
                   x="247.18201"
                   width="71.308998"
                   style="fill:#484b4d"
                   height="4.75" />
                <rect
                   id="rect4193"
                   y="216.32899"
                   x="247.18201"
                   width="45.547001"
                   style="fill:#484b4d"
                   height="4.75" />
              </g>
            </g>
          </g>
        </g>
        <g
           id="Layer_1" />
      </g>
      <g
         style="font-style:normal;font-weight:normal;font-size:49.37728882px;line-height:125%;font-family:Sans;letter-spacing:0px;word-spacing:0px;fill:#484b4d;fill-opacity:1;stroke:none;stroke-width:1px;stroke-linecap:butt;stroke-linejoin:miter;stroke-opacity:1"
         id="text4222">
        <path
           d="m 364.82145,339.61518 1.10906,-3.42362 q 3.83349,1.35016 5.56941,2.33867 -0.45809,-4.36391 -0.4822,-6.00339 l 3.49595,0 q -0.0723,2.38689 -0.55453,5.97928 2.48333,-1.25372 5.68996,-2.31456 l 1.10906,3.42362 q -3.06197,1.01262 -6.00339,1.35016 1.47071,1.27783 4.14692,4.55679 l -2.8932,2.04935 q -1.39838,-1.90469 -3.30307,-5.18365 -1.78414,3.39951 -3.1343,5.18365 l -2.84498,-2.04935 q 2.79676,-3.44773 4.00226,-4.55679 -3.11019,-0.60275 -5.90695,-1.35016 z"
           style="font-style:normal;font-variant:normal;font-weight:normal;font-stretch:normal;font-family:arial;-inkscape-font-specification:arial;fill:#484b4d;fill-opacity:1"
           id="path4227" />
      </g>
    </g>
  </g>
</svg>
