<?xml version="1.0" encoding="UTF-8" standalone="no"?>
<svg
   xmlns:dc="http://purl.org/dc/elements/1.1/"
   xmlns:cc="http://creativecommons.org/ns#"
   xmlns:rdf="http://www.w3.org/1999/02/22-rdf-syntax-ns#"
   xmlns:svg="http://www.w3.org/2000/svg"
   xmlns="http://www.w3.org/2000/svg"
   version="1.1"
   id="svg4440"
   viewBox="0 0 150 150"
   height="150"
   width="150">
  <defs
     id="defs4442" />
  <metadata
     id="metadata4445">
    <rdf:RDF>
      <cc:Work
         rdf:about="">
        <dc:format>image/svg+xml</dc:format>
        <dc:type
           rdf:resource="http://purl.org/dc/dcmitype/StillImage" />
        <dc:title></dc:title>
      </cc:Work>
    </rdf:RDF>
  </metadata>
  <g
     transform="translate(0,-902.36216)"
     id="layer1">
    <g
       transform="matrix(0.3,0,0,0.3,0,902.36216)"
       id="g4327">
      <g
         id="checked-checklist-notepad">
        <g
           id="g4289">
          <polygon
             points="250,500 220.581,473.226 185.282,491.547 163.818,458.049 124.959,466.543 112.945,428.619 73.222,426.778 71.371,387.044 33.458,375.021 41.941,336.172 8.453,314.718 26.774,279.409 0,250 26.774,220.591 8.453,185.282 41.941,163.829 33.458,124.97 71.371,112.956 73.222,73.222 112.956,71.381 124.97,33.468 163.829,41.952 185.282,8.463 220.581,26.784 250,0 279.409,26.784 314.718,8.463 336.172,41.962 375.03,33.468 387.044,71.381 426.778,73.232 428.619,112.966 466.532,124.98 458.049,163.839 491.536,185.282 473.216,220.591 500,250 473.216,279.409 491.536,314.718 458.049,336.172 466.532,375.03 428.619,387.055 426.778,426.778 387.044,428.619 375.02,466.543 336.161,458.049 314.707,491.547 279.409,473.226 "
             style="fill:#fc6e51;fill-opacity:1"
             id="polygon4291" />
          <g
             id="_x33_4">
            <polygon
               points="201.258,181.412 298.742,181.412 294.21,170.822 320.002,170.822 320.002,354.029 179.993,354.029 179.993,170.822 205.79,170.822 "
               style="fill:#f4f8f8"
               id="polygon4294" />
            <path
               d="m 325.592,157.862 -45.553,0 c -9.913,-6.724 -8.799,-20.844 -8.799,-20.844 l -0.071,0.031 c 0.041,-0.57 0.178,-1.099 0.178,-1.678 0,-11.78 -9.557,-21.332 -21.336,-21.332 -11.8,0 -21.347,9.552 -21.347,21.332 0,0.58 0.137,1.108 0.173,1.678 l -0.051,-0.031 c 0,0 1.099,14.12 -8.814,20.844 l -45.573,0 c -8.58,0 -15.544,6.673 -15.544,14.923 l 0,198.242 c 0,8.261 6.963,14.934 15.544,14.934 l 151.194,0 c 8.591,0 15.554,-6.673 15.554,-14.934 l 0,-198.242 c -0.002,-8.249 -6.964,-14.923 -15.555,-14.923 z m -75.597,-39.754 c 9.354,0 16.957,7.568 16.957,16.947 0,9.349 -7.603,16.937 -16.957,16.937 -9.359,0 -16.942,-7.588 -16.942,-16.937 0,-9.378 7.583,-16.947 16.942,-16.947 z m 70.007,235.921 -140.009,0 0,-183.207 25.797,0 -4.532,10.589 97.484,0 -4.532,-10.589 25.792,0 0,183.207 z M 249.995,148.361 c 7.35,0 13.32,-5.972 13.32,-13.306 0,-7.355 -5.971,-13.316 -13.32,-13.316 -7.35,0 -13.316,5.961 -13.316,13.316 0,7.335 5.966,13.306 13.316,13.306 z m 0.015,-22.969 c 5.508,0 9.974,4.466 9.974,9.979 0,5.523 -4.466,9.989 -9.974,9.989 -5.524,0 -9.995,-4.466 -9.995,-9.989 0.001,-5.514 4.471,-9.979 9.995,-9.979 z"
               style="fill:#484b4d"
               id="path4296" />
            <g
               id="g4298">
              <g
                 id="g4300">
                <rect
                   height="5.198"
                   style="fill:#484b4d"
                   width="66.331001"
                   x="237.345"
                   y="226.41499"
                   id="rect4302" />
                <rect
                   height="5.198"
                   style="fill:#484b4d"
                   width="66.331001"
                   x="237.345"
                   y="253.606"
                   id="rect4304" />
                <rect
                   height="5.2090001"
                   style="fill:#484b4d"
                   width="66.331001"
                   x="237.345"
                   y="280.797"
                   id="rect4306" />
                <rect
                   height="5.198"
                   style="fill:#484b4d"
                   width="66.331001"
                   x="237.345"
                   y="307.98801"
                   id="rect4308" />
              </g>
              <g
                 id="g4310">
                <polygon
                   points="199.356,222.285 201.401,220.251 208.664,227.524 220.342,215.846 222.397,217.891 208.664,231.613 "
                   style="fill:#fc6e51"
                   id="polygon4312" />
                <polygon
                   points="199.356,249.486 201.401,247.452 208.664,254.725 220.342,243.047 222.397,245.082 208.664,258.805 "
                   style="fill:#fc6e51"
                   id="polygon4314" />
                <polygon
                   points="199.356,276.678 201.401,274.633 208.664,281.916 220.342,270.238 222.397,272.272 208.664,286.006 "
                   style="fill:#fc6e51"
                   id="polygon4316" />
                <polygon
                   points="199.356,303.869 201.401,301.834 208.664,309.117 220.342,297.43 222.397,299.484 208.664,313.197 "
                   style="fill:#fc6e51"
                   id="polygon4318" />
              </g>
            </g>
          </g>
        </g>
      </g>
      <g
         id="Layer_1-5" />
    </g>
  </g>
</svg>
