<?xml version="1.0" encoding="UTF-8" standalone="no"?>
<svg
   xmlns:dc="http://purl.org/dc/elements/1.1/"
   xmlns:cc="http://creativecommons.org/ns#"
   xmlns:rdf="http://www.w3.org/1999/02/22-rdf-syntax-ns#"
   xmlns:svg="http://www.w3.org/2000/svg"
   xmlns="http://www.w3.org/2000/svg"
   version="1.1"
   id="svg4440"
   viewBox="0 0 150 150"
   height="150"
   width="150">
  <defs
     id="defs4442" />
  <metadata
     id="metadata4445">
    <rdf:RDF>
      <cc:Work
         rdf:about="">
        <dc:format>image/svg+xml</dc:format>
        <dc:type
           rdf:resource="http://purl.org/dc/dcmitype/StillImage" />
        <dc:title></dc:title>
      </cc:Work>
    </rdf:RDF>
  </metadata>
  <g
     transform="translate(0,-902.36216)"
     id="layer1">
    <polygon
       points="0,250 26.774,220.591 8.453,185.282 41.941,163.829 33.458,124.97 71.371,112.956 73.222,73.222 112.956,71.381 124.97,33.468 163.829,41.952 185.282,8.463 220.581,26.784 250,0 279.409,26.784 314.718,8.463 336.172,41.962 375.03,33.468 387.044,71.381 426.778,73.232 428.619,112.966 466.532,124.98 458.049,163.839 491.536,185.282 473.216,220.591 500,250 473.216,279.409 491.536,314.718 458.049,336.172 466.532,375.03 428.619,387.055 426.778,426.778 387.044,428.619 375.02,466.543 336.161,458.049 314.707,491.547 279.409,473.226 250,500 220.581,473.226 185.282,491.547 163.818,458.049 124.959,466.543 112.945,428.619 73.222,426.778 71.371,387.044 33.458,375.021 41.941,336.172 8.453,314.718 26.774,279.409 "
       style="fill:#fc6e51;fill-opacity:1"
       id="polygon4291-6-6"
       transform="matrix(0.3,0,0,0.3,0,902.36216)" />
    <g
       transform="matrix(0.72753373,0,0,0.72753373,-718.37551,564.73556)"
       id="g4432">
      <path
         id="path4415"
         transform="translate(2.9282273e-5,-0.91674605)"
         d="m 1097.1055,514.98047 c -16.0185,0 -24.5368,2.72446 -33.1641,10.60937 -8.7469,7.99417 -12.3777,19.10468 -9.6816,29.62891 1.529,5.96807 3.3579,9.34495 8.1269,15.00586 4.9353,5.85816 8.9531,15.33263 8.9531,21.11133 l 0,4.85937 19.1114,0 19.1113,0 0.3652,-5.45703 c 0.4441,-6.61464 4.3552,-15.30018 9.6328,-21.39258 5.9386,-6.85575 8.0718,-12.46712 8.0528,-21.18164 -0.022,-10.64327 -2.3272,-15.04185 -13.2539,-25.29687 l -8.4024,-7.88672 -8.8515,0 z m -21.2754,84.70898 0.3691,2.40039 c 0.2027,1.32086 0.5474,3.28649 0.7676,4.36719 0.3937,1.9327 0.6168,1.96485 13.5117,1.96485 9.7274,0 13.195,-0.28185 13.4434,-1.0918 0.1842,-0.60038 0.5402,-2.56602 0.791,-4.36719 l 0.457,-3.27344 -14.6699,0 -14.6699,0 z m 14.6543,12.22461 c -4.8031,0 -8.7182,0.29603 -8.7012,0.65625 0.076,1.61752 2.5304,4.93257 4.4316,5.98633 1.148,0.63624 2.9913,1.1705 4.0957,1.1875 4.0152,0.0619 8.9063,-3.72739 8.9063,-6.89844 0,-0.59669 -3.1336,-0.93164 -8.7324,-0.93164 z"
         style="fill:#484c4d;fill-opacity:1" />
      <path
         style="fill:#f4f8f8;fill-opacity:1"
         d="m 1102.2174,583.48968 c 1.6676,-5.56589 7.0037,-15.34755 10.9272,-20.03097 4.8207,-5.7544 6.1186,-9.17944 6.1186,-16.14568 0,-10.5196 -6.7111,-19.69268 -17.3373,-23.69732 -6.8551,-2.58346 -18.6657,-2.14998 -25.0172,0.91821 -5.8736,2.83736 -12.1208,9.38039 -13.8767,14.53352 -2.8892,8.47923 -0.7775,19.48288 4.6695,24.33142 2.7177,2.4192 8.1622,12.02635 10.5343,18.58843 l 1.9824,5.48391 10.4764,-0.24418 10.4762,-0.24419 1.0466,-3.49315 z"
         id="path4409" />
      <path
         style="fill:#fc6e51;fill-opacity:1"
         d="m 1081.9941,568.97555 c -10.3733,-8.57191 -13.6529,-12.34257 -15.2151,-17.4933 -2.2884,-7.54458 1.3297,-14.60232 8.4715,-16.52542 4.3162,-1.16222 8.6218,0.86571 12.4572,5.86731 l 2.6571,3.46495 3.7206,-4.16859 c 4.6419,-5.20046 8.428,-6.48282 13.339,-4.51782 9.6325,3.85418 10.014,15.2249 0.8406,25.05359 -3.5272,3.77901 -14.7223,13.40132 -17.1013,14.6986 -0.4803,0.26192 -4.6066,-2.60878 -9.1696,-6.37932 z"
         id="path4405" />
    </g>
  </g>
</svg>
