<?xml version="1.0" encoding="UTF-8" standalone="no"?>
<svg xmlns:rdf="http://www.w3.org/1999/02/22-rdf-syntax-ns#" xmlns="http://www.w3.org/2000/svg" height="16" width="16" version="1.1" xmlns:cc="http://creativecommons.org/ns#" xmlns:dc="http://purl.org/dc/elements/1.1/" viewBox="0 0 16 16">
 <g transform="translate(0 -1036.4)">
  <path d="m6.2225 1036.8c0.016082 1.0967 0.17766 3.1043 0.48408 6.0234-1.1612-0.6613-3.0249-1.4434-5.5892-2.3466l-1.1123 3.4349c1.8708 0.5 3.8469 0.953 5.9273 1.3562-0.80639 0.7418-2.146 2.2649-4.0168 4.5711l2.8547 2.0564c0.90314-1.1933 1.9513-2.9272 3.1447-5.2011 1.2741 2.1933 2.3793 3.927 3.3147 5.2011l2.9027-2.0564c-1.7902-2.1934-3.1772-3.7164-4.1609-4.5711 1.9676-0.2258 3.9752-0.6789 6.0234-1.3562l-1.1123-3.4349c-2.145 0.7097-4.0482 1.4839-5.7093 2.3226 0.32254-2.4031 0.50776-4.4028 0.55615-5.9994h-3.5069z" fill="#da4453"/>
 </g>
</svg>
