<?xml version="1.0" encoding="UTF-8" standalone="no"?>
<!-- Created with Inkscape (http://www.inkscape.org/) -->

<svg
   xmlns:dc="http://purl.org/dc/elements/1.1/"
   xmlns:cc="http://creativecommons.org/ns#"
   xmlns:rdf="http://www.w3.org/1999/02/22-rdf-syntax-ns#"
   xmlns:svg="http://www.w3.org/2000/svg"
   xmlns="http://www.w3.org/2000/svg"
   version="1.1"
   width="272"
   height="32"
   id="svg2">
  <defs
     id="defs4" />
  <metadata
     id="metadata7">
    <rdf:RDF>
      <cc:Work
         rdf:about="">
        <dc:format>image/svg+xml</dc:format>
        <dc:type
           rdf:resource="http://purl.org/dc/dcmitype/StillImage" />
        <dc:title></dc:title>
      </cc:Work>
    </rdf:RDF>
  </metadata>
  <g
     transform="translate(-300.17373,-1020.4153)"
     id="layer1">
    <path
       d="m 492.57767,1052.0254 c -2.18102,-0.6089 -3.45383,-1.4125 -4.97536,-3.1409 -2.28438,-2.5953 -2.31755,-2.8171 -2.4506,-16.3894 l -0.11829,-12.0668 3.29236,0 3.29236,0 0.002,10.8212 c 0.001,6.3858 0.13176,11.2894 0.31896,11.9633 0.37436,1.3479 1.96163,2.8418 3.5905,3.3793 1.55892,0.5145 4.67295,0.2164 5.69282,-0.5451 0.43418,-0.3241 1.07836,-0.9761 1.43148,-1.4489 0.61771,-0.8269 0.64541,-1.3013 0.73073,-12.5146 l 0.0885,-11.6552 3.27551,0 3.27552,0 -0.10505,12.2225 c -0.0931,10.8337 -0.16843,12.3886 -0.66282,13.6844 -0.83242,2.1817 -2.64363,4.0514 -4.93034,5.0895 -1.78845,0.8119 -2.32698,0.8999 -6.0126,0.9818 -2.90082,0.064 -4.52648,-0.043 -5.7356,-0.3811 z m -181.26085,-0.2372 c 0,-0.061 -2.45173,-6.9671 -5.44828,-15.3464 -2.99655,-8.3792 -5.44883,-15.4147 -5.44952,-15.6345 -10e-4,-0.3064 0.80755,-0.3789 3.47257,-0.3114 l 3.47381,0.088 3.83982,11.1802 c 2.1119,6.1491 3.88528,11.2257 3.94087,11.2812 0.0556,0.056 1.76568,-5.0105 3.80022,-11.258 l 3.69914,-11.3591 3.52202,0 c 1.93711,0 3.52183,0.035 3.52159,0.078 -2.3e-4,0.043 -2.50934,7.0844 -5.57577,15.648 l -5.57535,15.57 -3.61056,0.088 c -1.98581,0.048 -3.61056,0.037 -3.61056,-0.024 z m 29.27171,-0.4796 c -2.81998,-0.938 -4.30425,-1.8531 -6.39186,-3.9407 -2.13176,-2.1318 -3.20941,-3.9508 -4.04644,-6.8301 -0.73667,-2.534 -0.51783,-7.4314 0.44253,-9.9033 1.49869,-3.8575 5.13406,-7.4929 8.99158,-8.9915 2.47188,-0.9604 7.36927,-1.1792 9.90333,-0.4426 2.87998,0.8373 4.69837,1.9148 6.83239,4.0489 3.41842,3.4184 4.64344,6.7014 4.46076,11.9548 -0.10631,3.0571 -0.20361,3.4956 -1.2756,5.7486 -1.58034,3.3214 -4.27763,6.0197 -7.60272,7.6054 -2.32686,1.1098 -2.60374,1.1668 -6.02015,1.2416 -2.79682,0.061 -3.95621,-0.046 -5.29382,-0.4911 z m 9.64437,-5.5789 c 0.18238,-0.6423 0.479,-2.1487 0.65916,-3.3476 0.18015,-1.1989 0.74036,-3.7913 1.24492,-5.7609 1.08331,-4.2289 1.13297,-4.9824 0.32837,-4.9824 -0.41702,0 -0.89794,0.6758 -1.71712,2.4133 l -1.13788,2.4133 0.21439,-2.8026 c 0.36729,-4.8015 0.3528,-4.9694 -0.43862,-5.0818 -0.80993,-0.1151 -1.11884,0.4988 -1.4603,2.9021 -0.33935,2.3881 -0.84298,4.2127 -1.11623,4.0439 -0.1355,-0.084 -0.33484,-1.5184 -0.44297,-3.1881 -0.27038,-4.175 -0.42337,-4.9698 -0.99931,-5.1908 -1.11077,-0.4262 -1.3863,0.3886 -1.35139,3.9968 0.0435,4.4931 0.0408,4.5421 -0.25082,4.5421 -0.29988,0 -0.78223,-1.3256 -1.47306,-4.0482 -0.57606,-2.2704 -0.90285,-2.8026 -1.72066,-2.8026 -0.92228,0 -0.94915,0.9058 -0.13377,4.5096 1.28401,5.6751 0.90677,7.3308 -0.93899,4.1213 -0.72105,-1.2538 -1.12958,-1.6469 -1.79055,-1.723 -0.72124,-0.083 -0.85636,0.018 -0.85636,0.6402 0,0.4063 0.29971,1.6417 0.666,2.7455 0.58231,1.7544 0.99323,2.3258 3.26972,4.5449 1.43205,1.3961 2.60371,2.6923 2.60371,2.8804 0,0.227 1.09722,0.3423 3.25508,0.3423 l 3.25507,0 0.33161,-1.1677 z m 14.33352,-9.42 0,-15.57 3.26972,0 3.26972,0 0,12.9231 0,12.9232 7.94072,0 7.94073,0 0,2.6469 0,2.6469 -11.21043,0 -11.21046,0 0,-15.5701 z m 35.18835,14.9989 c -2.81998,-0.938 -4.30425,-1.8531 -6.39186,-3.9407 -2.13176,-2.1318 -3.20941,-3.9508 -4.04644,-6.8301 -0.73668,-2.534 -0.51784,-7.4314 0.44253,-9.9033 1.49869,-3.8575 5.13405,-7.4929 8.99156,-8.9915 2.47189,-0.9604 7.36929,-1.1792 9.90335,-0.4426 2.87997,0.8373 4.69837,1.9148 6.83239,4.0489 3.41842,3.4184 4.64344,6.7014 4.46076,11.9548 -0.10632,3.0571 -0.20361,3.4956 -1.27561,5.7486 -1.58033,3.3214 -4.27762,6.0197 -7.60271,7.6054 -2.32686,1.1098 -2.60374,1.1668 -6.02015,1.2416 -2.79683,0.061 -3.95622,-0.046 -5.29382,-0.4911 z m 2.43963,-5.5312 c 0.91319,-0.6396 0.79939,-1.7984 -0.1904,-1.9389 -0.38999,-0.055 -0.68868,-0.2655 -0.66375,-0.4671 0.0988,-0.7991 -0.0543,-1.1113 -0.63536,-1.2957 -0.33377,-0.1059 -0.69127,-0.4585 -0.79442,-0.7835 -0.10316,-0.3251 -0.46066,-0.6777 -0.79443,-0.7835 -0.33379,-0.106 -0.60687,-0.3885 -0.60687,-0.6279 0,-0.2393 -0.28121,-0.5856 -0.6249,-0.7695 -0.51213,-0.2742 -0.76498,-0.1944 -1.4013,0.4419 -0.42703,0.427 -0.77641,0.9058 -0.77641,1.0639 0,0.5059 0.90956,1.0626 1.41769,0.8676 0.36978,-0.1419 0.4461,-0.046 0.30834,0.3882 -0.20463,0.6448 0.55181,1.4563 1.06293,1.1404 0.19345,-0.1196 0.32504,0.1217 0.32504,0.596 0,0.7813 0.2318,0.9241 1.32104,0.8136 0.37369,-0.038 0.48446,0.096 0.35593,0.4312 -0.2471,0.644 0.0697,1.4205 0.57948,1.4205 0.22417,0 0.727,-0.2238 1.11739,-0.4972 z m 3.77188,-0.2614 c 0.4095,-0.4934 0.10428,-1.3251 -0.74499,-2.0299 -0.26625,-0.221 -0.48411,-0.5532 -0.48411,-0.7382 0,-0.1851 0.55428,0.2047 1.23173,0.8662 1.04107,1.0166 1.30618,1.141 1.71271,0.8036 0.69417,-0.5761 0.60374,-0.9451 -0.51431,-2.0987 -0.54741,-0.5647 -0.85389,-1.0268 -0.68106,-1.0268 0.17283,0 0.71699,0.4203 1.20925,0.9342 0.96335,1.0055 2.33551,1.2677 2.33551,0.4463 0,-0.2683 -0.36986,-0.9728 -0.82192,-1.5654 -1.04662,-1.3723 -0.81257,-1.6564 0.35793,-0.4347 0.98284,1.0259 1.85075,1.201 2.1455,0.4329 0.13114,-0.3417 -0.51832,-1.2307 -2.06863,-2.8316 -1.24289,-1.2833 -2.4958,-2.4605 -2.78425,-2.6159 -0.36567,-0.1969 -1.09329,-0.036 -2.40321,0.5323 -2.34405,1.0166 -3.31213,0.8514 -3.94957,-0.6742 -0.61737,-1.4776 -0.0617,-2.4993 2.01599,-3.7063 1.06042,-0.6161 1.455,-0.9994 1.19734,-1.163 -0.82825,-0.5261 -2.52409,-0.2105 -4.57692,0.8519 -2.09639,1.0848 -2.15788,1.0965 -3.29163,0.6228 -2.03242,-0.8492 -2.0135,-0.8796 -2.0135,3.2312 0,3.2483 0.0664,3.7268 0.52951,3.8159 0.29123,0.056 0.84539,-0.2138 1.23146,-0.5999 1.16582,-1.1658 2.68241,-0.9591 4.08283,0.5564 0.63951,0.692 1.89841,1.9874 2.79759,2.8785 0.89917,0.8911 1.63485,1.8904 1.63485,2.2204 0,0.5964 0.82519,1.7393 1.25575,1.7393 0.12375,0 0.39201,-0.2014 0.59615,-0.4473 z m 9.5921,-6.5999 c 0.67015,-0.1796 0.70065,-0.33 0.70065,-3.4549 l 0,-3.2672 -0.77872,0.1955 c -0.42829,0.1074 -1.40658,0.2815 -2.17395,0.3866 -1.28426,0.176 -1.49257,0.1033 -2.61914,-0.9145 -1.98989,-1.7977 -2.32192,-1.895 -3.84365,-1.1262 -3.63815,1.8379 -5.56316,3.1742 -5.46973,3.7969 0.19555,1.3031 1.04957,1.3841 3.14636,0.2983 1.07488,-0.5566 2.23213,-1.012 2.57169,-1.012 0.36061,0 1.71246,1.1008 3.25052,2.6468 2.72672,2.741 3.23737,2.9809 5.21597,2.4507 z m 10.66549,-2.7729 0,-15.7367 3.19186,0.089 3.19186,0.089 6.30588,10.2617 6.30587,10.2617 0,-10.3395 0,-10.3396 2.95832,0 2.95831,0 0,15.7363 0,15.7363 -3.32505,-0.088 -3.32505,-0.088 -5.93914,-9.6235 -5.93914,-9.6236 -0.0823,9.7015 -0.0823,9.7013 -3.10958,0 -3.10958,0 0,-15.7366 z m 38.61376,2.8135 0,-12.9232 -4.51532,0 -4.51532,0 0,-2.8026 0,-2.8026 12.45605,0 12.45605,0 0,2.8026 0,2.8026 -4.67101,0 -4.67103,0 0,12.9232 0,12.9231 -3.26971,0 -3.26971,0 0,-12.9231 z m 52.004,-2.647 0,-15.57 3.26972,0 3.26972,0 0,12.9231 0,12.9232 7.94072,0 7.94073,0 0,2.6469 0,2.6469 -11.21044,0 -11.21045,0 0,-15.5701 z m 34.87694,14.9989 c -2.81998,-0.938 -4.30424,-1.8531 -6.39186,-3.9407 -2.13175,-2.1318 -3.20941,-3.9508 -4.04645,-6.8301 -0.73666,-2.534 -0.51783,-7.4314 0.44253,-9.9033 1.49871,-3.8575 5.13407,-7.4929 8.99159,-8.9915 2.47187,-0.9604 7.36926,-1.1792 9.90333,-0.4426 2.87998,0.8373 4.69838,1.9148 6.83239,4.0489 3.41843,3.4184 4.64345,6.7014 4.46076,11.9548 -0.1063,3.0571 -0.2036,3.4956 -1.2756,5.7486 -1.58034,3.3214 -4.27763,6.0197 -7.60272,7.6054 -2.32686,1.1098 -2.60373,1.1668 -6.02014,1.2416 -2.79683,0.061 -3.95621,-0.046 -5.29383,-0.4911 z m 10.58765,-5.5011 c 0.42817,-0.2448 1.09379,-0.45 1.47915,-0.4561 0.69025,-0.011 0.70066,-0.071 0.70066,-4.0753 l 0,-4.0646 -0.97442,-0.3396 c -0.73329,-0.2556 -1.42684,-1.0393 -2.80261,-3.1666 -1.73767,-2.6871 -1.8282,-2.9243 -1.8282,-4.7901 0,-1.8315 -0.0547,-1.9837 -0.81639,-2.2733 -1.08762,-0.4135 -1.49414,-0.037 -2.30629,2.1332 -0.57748,1.5434 -0.61571,1.9761 -0.32315,3.656 0.1825,1.0481 0.33182,1.9992 0.33182,2.1136 0,0.1144 -1.51342,0.208 -3.36313,0.208 -2.20058,0 -3.49231,0.1292 -3.73682,0.3737 -0.46185,0.4618 -0.49166,2.0079 -0.044,2.2846 0.19059,0.1177 0.24465,0.5906 0.12815,1.121 -0.12597,0.5735 -0.0483,1.1018 0.20714,1.4097 0.22475,0.2707 0.44014,1.0007 0.47864,1.622 0.21517,3.4715 0.37907,3.9666 1.45736,4.4016 0.36784,0.1484 2.91088,0.2738 5.65121,0.2786 3.76111,0.01 5.17325,-0.1004 5.76092,-0.4364 z"
       id="path3000"
       style="fill:#e67e22;fill-opacity:1" />
    <path
       d=""
       id="path2996"
       style="fill:#000000" />
  </g>
</svg>
